<svg id="Layer_1" enable-background="new 0 0 511.999 511.999" height="512" viewBox="0 0 511.999 511.999" width="512" xmlns="http://www.w3.org/2000/svg"><g><path d="m208.053 384.795v31.521c0 12.054-5.776 23.247-15.263 29.575l-22.914 15.285h172.249l-22.914-15.285c-9.487-6.328-15.263-17.521-15.263-29.575v-31.521c-31.534 0-64.363 0-95.895 0z" fill="#bed8fb"/><path d="m208.053 384.795v31.521c0 12.054-5.776 23.247-15.263 29.575l-22.915 15.285h55.596l.483-.322c9.487-6.328 15.263-17.521 15.263-29.575v-21.822c0-5.357 4.342-9.699 9.699-9.699h53.029v-14.963z" fill="#9dc6fb"/><path d="m358.159 460.071h-204.319c-5.689 0-10.301 4.612-10.301 10.301v11.535c0 5.689 4.612 10.301 10.301 10.301h204.319c5.689 0 10.301-4.612 10.301-10.301v-11.535c0-5.689-4.612-10.301-10.301-10.301z" fill="#dfebfa"/><path d="m200.629 481.907v-11.535c0-5.689 4.612-10.301 10.301-10.301h-57.09c-5.689 0-10.301 4.612-10.301 10.301v11.535c0 5.689 4.612 10.301 10.301 10.301h57.091c-5.69 0-10.302-4.612-10.302-10.301z" fill="#bed8fb"/><g><g><path d="m482.31 19.791h-452.621c-16.371 0-29.689 13.318-29.689 29.689v306.986c0 16.371 13.318 29.689 29.689 29.689h452.621c16.371 0 29.689-13.318 29.689-29.689v-306.986c0-16.371-13.318-29.689-29.689-29.689z" fill="#695d67"/></g></g><path d="m34.342 356.466v-306.986c0-16.371 13.318-29.689 29.689-29.689h-34.342c-16.371 0-29.689 13.318-29.689 29.689v306.986c0 16.371 13.318 29.689 29.689 29.689h34.341c-16.37 0-29.688-13.318-29.688-29.689z" fill="#554e56"/><g><path d="m32.137 88.075v2.06 259.61c0 2.36 1.912 4.272 4.272 4.272h439.181c2.359 0 4.272-1.912 4.272-4.272 0-6.921 0-186.243 0-261.671h-447.725z" fill="#dfebfa"/></g><path d="m63.045 349.746v-259.61-2.06h-30.908v2.06 259.61c0 2.36 1.912 4.272 4.272 4.272h30.907c-2.359 0-4.271-1.912-4.271-4.272z" fill="#bed8fb"/><path d="m475.59 51.928h-398.089v38.207h402.361c0-17.883 0-30.339 0-33.936 0-2.359-1.913-4.271-4.272-4.271z" fill="#80b4fb"/><path d="m78.531 51.928h-42.122c-2.359 0-4.272 1.912-4.272 4.272v33.936h46.394z" fill="#ff656f"/><path d="m67.315 51.928h-30.906c-2.359 0-4.272 1.912-4.272 4.272v33.936h30.906v-33.936c0-2.36 1.913-4.272 4.272-4.272z" fill="#ff4756"/><g><g><path d="m278.905 291.855-71.532-46.085c-3.587-2.311-4.622-7.092-2.31-10.679 2.311-3.587 7.094-4.622 10.679-2.311l71.532 46.085c3.587 2.311 4.622 7.092 2.31 10.679-2.309 3.586-7.089 4.624-10.679 2.311z" fill="#61a2f9"/></g></g><g><g><path d="m212.939 215.205c-2.79 0-5.484-1.516-6.861-4.163-1.969-3.786-.496-8.451 3.289-10.419l97.179-50.547c3.787-1.97 8.451-.497 10.42 3.289s.496 8.451-3.289 10.419l-97.179 50.547c-1.14.592-2.359.874-3.559.874z" fill="#61a2f9"/></g></g><g fill="#80b4fb"><circle cx="184.863" cy="222.077" r="35.557"/><circle cx="329.785" cy="146.697" r="25.893"/><circle cx="301.865" cy="297.457" r="25.893"/></g><path d="m175.495 222.077c0-15.012 9.308-27.841 22.463-33.057-4.054-1.607-8.469-2.5-13.095-2.5-19.638 0-35.557 15.919-35.557 35.557s15.919 35.557 35.557 35.557c4.626 0 9.041-.893 13.095-2.5-13.156-5.216-22.463-18.046-22.463-33.057z" fill="#0290f4"/><path d="m330.081 146.697c0-9.521 5.143-17.837 12.799-22.335-3.843-2.258-8.316-3.558-13.095-3.558-14.3 0-25.893 11.593-25.893 25.893s11.593 25.893 25.893 25.893c4.779 0 9.252-1.3 13.095-3.558-7.656-4.498-12.799-12.814-12.799-22.335z" fill="#0290f4"/><path d="m302.161 297.457c0-9.521 5.143-17.837 12.798-22.335-3.843-2.258-8.316-3.558-13.094-3.558-14.3 0-25.893 11.593-25.893 25.893s11.593 25.893 25.893 25.893c4.779 0 9.252-1.3 13.094-3.558-7.655-4.498-12.798-12.814-12.798-22.335z" fill="#0290f4"/></g></svg>